<?xml version="1.0" encoding="UTF-8" standalone="no"?>
<!-- Created with Inkscape (http://www.inkscape.org/) -->

<svg
   xmlns:dc="http://purl.org/dc/elements/1.1/"
   xmlns:cc="http://creativecommons.org/ns#"
   xmlns:rdf="http://www.w3.org/1999/02/22-rdf-syntax-ns#"
   xmlns:svg="http://www.w3.org/2000/svg"
   xmlns="http://www.w3.org/2000/svg"
   xmlns:sodipodi="http://sodipodi.sourceforge.net/DTD/sodipodi-0.dtd"
   xmlns:inkscape="http://www.inkscape.org/namespaces/inkscape"
   width="800"
   height="800"
   viewBox="0 0 211.66666 211.66667"
   version="1.1"
   id="svg8"
   inkscape:version="0.92.4 (5da689c313, 2019-01-14)"
   sodipodi:docname="Bolt.svg">
  <defs
     id="defs2" />
  <sodipodi:namedview
     id="base"
     pagecolor="#ffffff"
     bordercolor="#666666"
     borderopacity="1.0"
     inkscape:pageopacity="0.0"
     inkscape:pageshadow="2"
     inkscape:zoom="0.49497475"
     inkscape:cx="282.58149"
     inkscape:cy="185.44322"
     inkscape:document-units="mm"
     inkscape:current-layer="layer1"
     showgrid="false"
     units="px"
     inkscape:pagecheckerboard="true"
     inkscape:window-width="1920"
     inkscape:window-height="1017"
     inkscape:window-x="-8"
     inkscape:window-y="-8"
     inkscape:window-maximized="1" />
  <metadata
     id="metadata5">
    <rdf:RDF>
      <cc:Work
         rdf:about="">
        <dc:format>image/svg+xml</dc:format>
        <dc:type
           rdf:resource="http://purl.org/dc/dcmitype/StillImage" />
        <dc:title></dc:title>
      </cc:Work>
    </rdf:RDF>
  </metadata>
  <g
     inkscape:label="Layer 1"
     inkscape:groupmode="layer"
     id="layer1"
     transform="translate(0,-85.333317)">
    <path
       style="fill:#000000;stroke-width:0.57945067"
       d="M 200 107.17969 L 0 453.58984 L 200 800 L 600 800 L 800 453.58984 L 600 107.17969 L 200 107.17969 z M 401.26367 356.81641 A 100 100 0 0 1 501.26367 456.81641 A 100 100 0 0 1 401.26367 556.81641 A 100 100 0 0 1 301.26367 456.81641 A 100 100 0 0 1 401.26367 356.81641 z "
       transform="matrix(0.26458333,0,0,0.26458333,0,85.333317)"
       id="path16" />
    <path
       style="fill:#ffffff;stroke-width:0.54323494"
       d="M 212.5 128.83008 L 25 453.58984 L 212.5 778.34961 L 587.5 778.34961 L 775 453.58984 L 587.5 128.83008 L 212.5 128.83008 z M 401.26367 356.81641 A 99.999999 99.999999 0 0 1 411.24609 357.31641 A 100 100 0 0 1 457.72852 374.2832 A 99.999999 99.999999 0 0 1 473 387.14648 A 100 100 0 0 1 490.38477 411.45703 A 99.999999 99.999999 0 0 1 494.4668 420.58008 A 100 100 0 0 1 496.57227 426.91602 A 99.999999 99.999999 0 0 1 497.61914 430.06641 A 100 100 0 0 1 499.80859 439.82031 A 99.999999 99.999999 0 0 1 501.01367 449.74219 A 100 100 0 0 1 501.26367 456.81641 A 99.999999 99.999999 0 0 1 500.76367 466.79883 A 100 100 0 0 1 500.76367 466.80078 A 100 100 0 0 1 496.79688 486.36914 A 99.999999 99.999999 0 0 1 493.36914 495.75781 A 100 100 0 0 1 477.74805 521.23828 A 100 100 0 0 1 470.93359 528.55273 A 100 100 0 0 1 446.62305 545.9375 A 100 100 0 0 1 418.25977 555.36133 A 100 100 0 0 1 401.26367 556.81641 A 100 100 0 0 1 371.71094 552.34961 A 100 100 0 0 1 353.32227 544.57617 A 100 100 0 0 1 353.32031 544.57422 A 100 100 0 0 1 336.8418 533.30078 A 100 100 0 0 1 329.5293 526.48828 A 99.999999 99.999999 0 0 1 328.72656 525.57422 A 100 100 0 0 1 322.93164 518.97656 A 99.999999 99.999999 0 0 1 317.11719 510.84766 A 100 100 0 0 1 317.11719 510.8457 A 99.999999 99.999999 0 0 1 312.14258 502.17773 A 100 100 0 0 1 312.14258 502.17578 A 99.999999 99.999999 0 0 1 308.06055 493.05273 A 100 100 0 0 1 302.71875 473.8125 A 99.999999 99.999999 0 0 1 301.51367 463.89062 A 100 100 0 0 1 301.26367 456.81641 A 100 100 0 0 1 303.25781 436.94922 A 99.999999 99.999999 0 0 1 305.73047 427.26562 A 100 100 0 0 1 305.73047 427.26367 A 99.999999 99.999999 0 0 1 309.1582 417.875 A 100 100 0 0 1 313.50586 408.87305 A 99.999999 99.999999 0 0 1 318.73047 400.35352 A 100 100 0 0 1 318.73047 400.35156 A 99.999999 99.999999 0 0 1 324.7793 392.39453 A 100 100 0 0 1 331.59375 385.08203 A 99.999999 99.999999 0 0 1 339.10352 378.48438 A 100 100 0 0 1 347.23438 372.66992 A 99.999999 99.999999 0 0 1 365.02734 363.61328 A 100 100 0 0 1 384.26758 358.27148 A 99.999999 99.999999 0 0 1 401.26367 356.81641 z "
       transform="matrix(0.26458333,0,0,0.26458333,0,85.333317)"
       id="path18" />
    <path
       style="fill:#000000;stroke-width:0.90323859"
       d="M 401.26367 331.81641 A 125 125 0 0 0 276.26367 456.81641 A 125 125 0 0 0 401.26367 581.81641 A 125 125 0 0 0 526.26367 456.81641 A 125 125 0 0 0 401.26367 331.81641 z M 401.26367 356.81641 A 100 100 0 0 1 501.26367 456.81641 A 100 100 0 0 1 401.26367 556.81641 A 100 100 0 0 1 301.26367 456.81641 A 100 100 0 0 1 401.26367 356.81641 z "
       id="path20"
       transform="matrix(0.26458333,0,0,0.26458333,0,85.333317)" />
  </g>
</svg>
