<?xml version="1.0" encoding="UTF-8" standalone="no"?>
<!-- Generator: Adobe Illustrator 16.0.0, SVG Export Plug-In . SVG Version: 6.00 Build 0)  -->

<svg
   xmlns:dc="http://purl.org/dc/elements/1.1/"
   xmlns:cc="http://creativecommons.org/ns#"
   xmlns:rdf="http://www.w3.org/1999/02/22-rdf-syntax-ns#"
   xmlns:svg="http://www.w3.org/2000/svg"
   xmlns="http://www.w3.org/2000/svg"
   xmlns:sodipodi="http://sodipodi.sourceforge.net/DTD/sodipodi-0.dtd"
   xmlns:inkscape="http://www.inkscape.org/namespaces/inkscape"
   version="1.1"
   id="Capa_1"
   x="0px"
   y="0px"
   width="458.228px"
   height="458.229px"
   viewBox="0 0 458.228 458.229"
   style="enable-background:new 0 0 458.228 458.229;"
   xml:space="preserve"
   sodipodi:docname="50453.svg"
   inkscape:version="0.92.4 (5da689c313, 2019-01-14)"><metadata
   id="metadata41"><rdf:RDF><cc:Work
       rdf:about=""><dc:format>image/svg+xml</dc:format><dc:type
         rdf:resource="http://purl.org/dc/dcmitype/StillImage" /></cc:Work></rdf:RDF></metadata><defs
   id="defs39" /><sodipodi:namedview
   pagecolor="#ffffff"
   bordercolor="#666666"
   borderopacity="1"
   objecttolerance="10"
   gridtolerance="10"
   guidetolerance="10"
   inkscape:pageopacity="0"
   inkscape:pageshadow="2"
   inkscape:window-width="1920"
   inkscape:window-height="1017"
   id="namedview37"
   showgrid="false"
   inkscape:zoom="0.51502633"
   inkscape:cx="229.114"
   inkscape:cy="229.1145"
   inkscape:window-x="-8"
   inkscape:window-y="-8"
   inkscape:window-maximized="1"
   inkscape:current-layer="Capa_1" />
<g
   id="g4">
	<path
   d="M405.958,81.303c-15.021-17.78-32.731-33.265-52.6-45.852C316.754,12.259,274.402,0,230.884,0   C169.685,0,112.149,23.832,68.875,67.106C25.601,110.38,1.769,167.916,1.769,229.114S25.601,347.85,68.875,391.123   c43.274,43.273,100.81,67.105,162.009,67.105c47.021,0,92.212-14.145,130.688-40.906c37.567-26.131,66.195-62.395,82.788-104.87   l-52.094-20.351c-26.149,66.943-89.498,110.199-161.384,110.199c-95.496,0-173.188-77.691-173.188-173.188   S135.387,55.925,230.883,55.925c48.337,0,93.034,19.639,125.137,53.303l-60.872,34.043l79.391,47.296l79.392,47.299l1.263-92.403   l1.267-92.403L405.958,81.303z"
   id="path2" />
</g>
<g
   id="g6">
</g>
<g
   id="g8">
</g>
<g
   id="g10">
</g>
<g
   id="g12">
</g>
<g
   id="g14">
</g>
<g
   id="g16">
</g>
<g
   id="g18">
</g>
<g
   id="g20">
</g>
<g
   id="g22">
</g>
<g
   id="g24">
</g>
<g
   id="g26">
</g>
<g
   id="g28">
</g>
<g
   id="g30">
</g>
<g
   id="g32">
</g>
<g
   id="g34">
</g>
<path
   style="fill:#ffffff;stroke:#000000;stroke-width:10;stroke-miterlimit:4;stroke-dasharray:none;stroke-opacity:1"
   d="M 210.79035,455.97609 C 112.61315,448.63223 27.516107,372.63629 7.5119699,274.43824 c -5.4939508,-26.96918 -5.4939508,-63.67829 0,-90.64747 C 19.359874,125.63075 54.90707,72.817258 104.46018,39.752026 144.22423,13.218725 182.3039,1.7537469 230.66732,1.7537469 c 62.52074,0 116.62262,22.1922481 161.44873,66.2252641 7.59806,7.46362 14.35407,13.541634 15.01337,13.506697 0.65929,-0.03493 11.68362,-6.060501 24.4985,-13.390142 12.81488,-7.329643 23.43538,-13.198815 23.6011,-13.042605 0.16582,0.156205 -0.27113,40.948256 -0.97082,90.648999 l -1.27215,90.36498 -77.12165,-45.70707 c -42.4169,-25.13889 -77.14813,-46.21951 -77.18052,-46.84583 -0.0324,-0.62632 13.04725,-8.44337 29.06585,-17.37124 16.0186,-8.92786 29.12473,-16.7697 29.12473,-17.42632 0,-0.65661 -5.71095,-5.94568 -12.691,-11.753485 -53.6447,-44.635447 -125.57423,-54.31907 -186.83163,-25.152491 -20.25502,9.644053 -31.24258,17.14619 -46.803,31.956356 -53.188002,50.62354 -68.472003,131.79885 -37.328612,198.25712 9.461101,20.18945 17.161062,31.51386 32.099462,47.209 36.92449,38.79501 90.39876,58.41251 143.49071,52.64085 47.08559,-5.11871 89.32625,-27.96343 117.56931,-63.58419 8.82487,-11.13013 22.33171,-33.88856 26.43603,-44.54359 0.27427,-0.712 47.29354,17.95606 48.65495,19.31746 2.02036,2.02036 -9.85418,25.81917 -22.00618,44.10452 -6.06732,9.1296 -18.63309,24.1443 -27.92395,33.36601 -48.68922,48.32681 -110.47942,70.69844 -180.7502,65.44205 z"
   id="path848"
   inkscape:connector-curvature="0"
   inkscape:export-filename="E:\GGJ2020-2\Assets\Sprites\Rotate.png"
   inkscape:export-xdpi="95.599998"
   inkscape:export-ydpi="95.599998" /></svg>