<?xml version="1.0" encoding="UTF-8" standalone="no"?>
<!-- Created with Inkscape (http://www.inkscape.org/) -->

<svg
   xmlns:dc="http://purl.org/dc/elements/1.1/"
   xmlns:cc="http://creativecommons.org/ns#"
   xmlns:rdf="http://www.w3.org/1999/02/22-rdf-syntax-ns#"
   xmlns:svg="http://www.w3.org/2000/svg"
   xmlns="http://www.w3.org/2000/svg"
   xmlns:sodipodi="http://sodipodi.sourceforge.net/DTD/sodipodi-0.dtd"
   xmlns:inkscape="http://www.inkscape.org/namespaces/inkscape"
   width="3791.0857"
   height="1366.6592"
   viewBox="0 0 1003.0581 361.59525"
   version="1.1"
   id="svg8"
   inkscape:version="0.92.4 (5da689c313, 2019-01-14)"
   sodipodi:docname="Wrench.svg"
   inkscape:export-filename="E:\GGJ2020-2\Assets\Sprites\bolt.png"
   inkscape:export-xdpi="96"
   inkscape:export-ydpi="96">
  <defs
     id="defs2" />
  <sodipodi:namedview
     id="base"
     pagecolor="#ffffff"
     bordercolor="#666666"
     borderopacity="1.0"
     inkscape:pageopacity="0.0"
     inkscape:pageshadow="2"
     inkscape:zoom="0.24748737"
     inkscape:cx="1536.1442"
     inkscape:cy="718.57177"
     inkscape:document-units="mm"
     inkscape:current-layer="layer1"
     showgrid="false"
     units="px"
     inkscape:pagecheckerboard="true"
     inkscape:window-width="1920"
     inkscape:window-height="1017"
     inkscape:window-x="-8"
     inkscape:window-y="-8"
     inkscape:window-maximized="1"
     fit-margin-top="0"
     fit-margin-left="0"
     fit-margin-right="0"
     fit-margin-bottom="0" />
  <metadata
     id="metadata5">
    <rdf:RDF>
      <cc:Work
         rdf:about="">
        <dc:format>image/svg+xml</dc:format>
        <dc:type
           rdf:resource="http://purl.org/dc/dcmitype/StillImage" />
        <dc:title></dc:title>
      </cc:Work>
    </rdf:RDF>
  </metadata>
  <g
     inkscape:label="Layer 1"
     inkscape:groupmode="layer"
     id="layer1"
     transform="translate(-46.570724,-24.627488)">
    <path
       style="fill:#000000;stroke-width:0.99999994"
       d="M 800,-212.82031 A 697.14288,666.41011 0 0 0 199.7793,117.25586 L 212.5,128.83008 h 375 L 775,453.58984 587.5,778.34961 h -375 l -0.21289,-0.36914 -12.41211,13.01172 A 697.14288,666.41011 0 0 0 800,1120 697.14288,666.41011 0 0 0 1497.1426,453.58984 697.14288,666.41011 0 0 0 800,-212.82031 Z"
       id="path44"
       transform="matrix(0.26458333,0,0,0.26458333,0,85.333317)"
       inkscape:connector-curvature="0" />
    <path
       style="fill:#ffffff;stroke:#000000;stroke-width:37.79527664;stroke-miterlimit:4;stroke-dasharray:none;stroke-opacity:1"
       d="M 746.4557,1117.0502 C 644.63246,1107.0705 571.29757,1087.3454 488.50238,1047.6676 415.88243,1012.8661 355.84322,970.35049 298.88989,913.39716 265.78066,880.28793 241.72052,851.38791 217.19971,815.27438 l -15.82273,-23.30325 5.35401,-6.51446 5.35401,-6.51445 188.11699,0.0182 188.11697,0.0182 93.21052,-161.40742 c 51.26576,-88.77403 93.21049,-162.56191 93.21049,-163.97301 0,-1.41111 -41.91699,-75.14887 -93.14885,-163.8617 l -93.14888,-161.29604 -187.16845,-0.0544 -187.16848,-0.0543 -6.58857,-5.50149 -6.58856,-5.50149 9.73356,-15.15229 c 44.26114,-68.901536 108.83087,-135.47291 179.44151,-185.004138 92.9376,-65.192922 200.24151,-106.610012 319.98696,-123.508332 36.21641,-5.11082 145.70173,-5.11125 181.60649,-7.2e-4 85.46919,12.16531 152.8847,32.50831 225.485,68.04137 132.9576,65.07397 238.8647,167.412759 306.2768,295.95754 67.8104,129.30429 89.1911,283.44721 59.1199,426.22053 -41.429,196.6988 -171.5091,363.36512 -357.3155,457.81367 -79.6049,40.4645 -170.46106,66.3657 -261.62951,74.5851 -21.20391,1.9116 -100.22705,2.4301 -117.17769,0.7687 z"
       id="path884"
       inkscape:connector-curvature="0"
       transform="matrix(0.26458333,0,0,0.26458333,0,85.333317)" />
    <rect
       style="fill:#ffffff;stroke:#000000;stroke-width:10;stroke-miterlimit:4;stroke-dasharray:none;stroke-opacity:1"
       id="rect886"
       width="581.57849"
       height="164.63803"
       x="374.6207"
       y="127.36195" />
    <circle
       style="fill:#ffffff;stroke:#000000;stroke-width:10;stroke-miterlimit:4;stroke-dasharray:none;stroke-opacity:1"
       id="path888"
       cx="963.91339"
       cy="209.31944"
       r="80.715393" />
    <rect
       y="168.73694"
       x="471.01752"
       height="81.888062"
       width="344.88129"
       id="rect890"
       style="fill:#ffffff;stroke:#000000;stroke-width:5.43095064;stroke-miterlimit:4;stroke-dasharray:none;stroke-opacity:1" />
  </g>
</svg>
